<mxfile host="65bd71144e">
    <diagram id="DrkyC3V2zFr1rEeItjGi" name="Page-1">
        <mxGraphModel dx="1384" dy="1296" grid="1" gridSize="10" guides="1" tooltips="1" connect="1" arrows="1" fold="1" page="1" pageScale="1" pageWidth="850" pageHeight="1100" math="0" shadow="0">
            <root>
                <mxCell id="0"/>
                <mxCell id="1" parent="0"/>
                <mxCell id="99" style="html=1;entryX=0;entryY=0.5;entryDx=0;entryDy=0;entryPerimeter=0;edgeStyle=elbowEdgeStyle;endArrow=none;endFill=0;exitX=1;exitY=0.5;exitDx=0;exitDy=0;exitPerimeter=0;" parent="1" source="10" target="47" edge="1">
                    <mxGeometry relative="1" as="geometry">
                        <mxPoint x="332.2499999999998" y="270" as="targetPoint"/>
                        <Array as="points">
                            <mxPoint x="270" y="350"/>
                            <mxPoint x="329" y="230"/>
                        </Array>
                    </mxGeometry>
                </mxCell>
                <mxCell id="10" value="&amp;lt;&amp;lt;node&amp;gt;&amp;gt;&lt;br&gt;&amp;lt;&amp;lt;Public Cloud&amp;gt;&amp;gt;&lt;br&gt;&lt;b&gt;Clieant Application&lt;/b&gt;" style="html=1;outlineConnect=0;whiteSpace=wrap;shape=mxgraph.archimate.application;appType=node;align=center;verticalAlign=top;" parent="1" vertex="1">
                    <mxGeometry x="18.25" y="10" width="209" height="230" as="geometry"/>
                </mxCell>
                <mxCell id="29" value="«c&lt;span style=&quot;border-color: var(--border-color);&quot;&gt;omponent&lt;/span&gt;»&lt;br&gt;Web Application" style="html=1;dropTarget=0;verticalAlign=top;" parent="1" vertex="1">
                    <mxGeometry x="32.75" y="60" width="180" height="50" as="geometry"/>
                </mxCell>
                <mxCell id="30" value="" style="shape=module;jettyWidth=8;jettyHeight=4;" parent="29" vertex="1">
                    <mxGeometry x="1" width="20" height="20" relative="1" as="geometry">
                        <mxPoint x="-27" y="7" as="offset"/>
                    </mxGeometry>
                </mxCell>
                <mxCell id="31" value="«c&lt;span style=&quot;border-color: var(--border-color);&quot;&gt;omponent&lt;/span&gt;»&lt;br&gt;Mobile UI" style="html=1;dropTarget=0;verticalAlign=top;" parent="1" vertex="1">
                    <mxGeometry x="32.75" y="120" width="180" height="50" as="geometry"/>
                </mxCell>
                <mxCell id="32" value="" style="shape=module;jettyWidth=8;jettyHeight=4;" parent="31" vertex="1">
                    <mxGeometry x="1" width="20" height="20" relative="1" as="geometry">
                        <mxPoint x="-27" y="7" as="offset"/>
                    </mxGeometry>
                </mxCell>
                <mxCell id="38" value="&amp;lt;&amp;lt;node&amp;gt;&amp;gt;&lt;br&gt;&amp;lt;&amp;lt;Private Clooud with VM&amp;gt;&amp;gt;&lt;br&gt;&lt;b&gt;OCR Service&lt;/b&gt;" style="html=1;outlineConnect=0;whiteSpace=wrap;shape=mxgraph.archimate.application;appType=node;align=center;verticalAlign=top;" parent="1" vertex="1">
                    <mxGeometry x="10" y="670" width="240" height="520" as="geometry"/>
                </mxCell>
                <mxCell id="39" value="«c&lt;span style=&quot;border-color: var(--border-color);&quot;&gt;omponent&lt;/span&gt;»&lt;br&gt;Image Preprocessing" style="html=1;dropTarget=0;verticalAlign=top;" parent="1" vertex="1">
                    <mxGeometry x="30" y="720" width="200" height="130" as="geometry"/>
                </mxCell>
                <mxCell id="40" value="" style="shape=module;jettyWidth=8;jettyHeight=4;" parent="39" vertex="1">
                    <mxGeometry x="1" width="20" height="20" relative="1" as="geometry">
                        <mxPoint x="-27" y="7" as="offset"/>
                    </mxGeometry>
                </mxCell>
                <mxCell id="45" value="«c&lt;span style=&quot;border-color: var(--border-color);&quot;&gt;omponent&lt;/span&gt;»&lt;br&gt;Desktop Application" style="html=1;dropTarget=0;verticalAlign=top;" parent="1" vertex="1">
                    <mxGeometry x="32.75" y="180" width="180" height="50" as="geometry"/>
                </mxCell>
                <mxCell id="46" value="" style="shape=module;jettyWidth=8;jettyHeight=4;" parent="45" vertex="1">
                    <mxGeometry x="1" width="20" height="20" relative="1" as="geometry">
                        <mxPoint x="-27" y="7" as="offset"/>
                    </mxGeometry>
                </mxCell>
                <mxCell id="195" style="edgeStyle=orthogonalEdgeStyle;html=1;endArrow=none;endFill=0;" edge="1" parent="1" source="47" target="188">
                    <mxGeometry relative="1" as="geometry">
                        <Array as="points">
                            <mxPoint x="425" y="450"/>
                            <mxPoint x="425" y="450"/>
                        </Array>
                    </mxGeometry>
                </mxCell>
                <mxCell id="47" value="&amp;lt;&amp;lt;node&amp;gt;&amp;gt;&lt;br&gt;&amp;lt;&amp;lt;Public Cloud&amp;gt;&amp;gt;&lt;br&gt;&lt;b&gt;API Gateway&lt;/b&gt;" style="html=1;outlineConnect=0;whiteSpace=wrap;shape=mxgraph.archimate.application;appType=node;align=center;verticalAlign=top;" parent="1" vertex="1">
                    <mxGeometry x="311" y="140" width="209" height="300" as="geometry"/>
                </mxCell>
                <mxCell id="48" value="«c&lt;span style=&quot;border-color: var(--border-color);&quot;&gt;omponent&lt;/span&gt;»&lt;br&gt;Request Router" style="html=1;dropTarget=0;verticalAlign=top;" parent="1" vertex="1">
                    <mxGeometry x="325.5" y="190" width="180" height="50" as="geometry"/>
                </mxCell>
                <mxCell id="49" value="" style="shape=module;jettyWidth=8;jettyHeight=4;" parent="48" vertex="1">
                    <mxGeometry x="1" width="20" height="20" relative="1" as="geometry">
                        <mxPoint x="-27" y="7" as="offset"/>
                    </mxGeometry>
                </mxCell>
                <mxCell id="52" value="«c&lt;span style=&quot;border-color: var(--border-color);&quot;&gt;omponent&lt;/span&gt;»&lt;br&gt;Rate Limiter" style="html=1;dropTarget=0;verticalAlign=top;" parent="1" vertex="1">
                    <mxGeometry x="325" y="250" width="180" height="50" as="geometry"/>
                </mxCell>
                <mxCell id="53" value="" style="shape=module;jettyWidth=8;jettyHeight=4;" parent="52" vertex="1">
                    <mxGeometry x="1" width="20" height="20" relative="1" as="geometry">
                        <mxPoint x="-27" y="7" as="offset"/>
                    </mxGeometry>
                </mxCell>
                <mxCell id="54" value="«c&lt;span style=&quot;border-color: var(--border-color);&quot;&gt;omponent&lt;/span&gt;»&lt;br&gt;Response Cache" style="html=1;dropTarget=0;verticalAlign=top;" parent="1" vertex="1">
                    <mxGeometry x="325" y="305" width="180" height="50" as="geometry"/>
                </mxCell>
                <mxCell id="55" value="" style="shape=module;jettyWidth=8;jettyHeight=4;" parent="54" vertex="1">
                    <mxGeometry x="1" width="20" height="20" relative="1" as="geometry">
                        <mxPoint x="-27" y="7" as="offset"/>
                    </mxGeometry>
                </mxCell>
                <mxCell id="57" value="«c&lt;span style=&quot;border-color: var(--border-color);&quot;&gt;omponent&lt;/span&gt;»&lt;br&gt;Aggregation" style="html=1;dropTarget=0;verticalAlign=top;" parent="1" vertex="1">
                    <mxGeometry x="325" y="365" width="180" height="50" as="geometry"/>
                </mxCell>
                <mxCell id="58" value="" style="shape=module;jettyWidth=8;jettyHeight=4;" parent="57" vertex="1">
                    <mxGeometry x="1" width="20" height="20" relative="1" as="geometry">
                        <mxPoint x="-27" y="7" as="offset"/>
                    </mxGeometry>
                </mxCell>
                <mxCell id="59" value="&amp;lt;&amp;lt;artifact&amp;gt;&amp;gt;&lt;br&gt;Image processing (noise reduction, binarization, normalization)" style="html=1;outlineConnect=0;whiteSpace=wrap;shape=mxgraph.archimate3.application;appType=artifact;archiType=square;verticalAlign=top;" parent="1" vertex="1">
                    <mxGeometry x="65.5" y="760" width="134.5" height="70" as="geometry"/>
                </mxCell>
                <mxCell id="62" value="«c&lt;span style=&quot;border-color: var(--border-color);&quot;&gt;omponent&lt;/span&gt;»&lt;br&gt;Image PostProcessing" style="html=1;dropTarget=0;verticalAlign=top;" parent="1" vertex="1">
                    <mxGeometry x="30" y="870" width="200" height="180" as="geometry"/>
                </mxCell>
                <mxCell id="63" value="" style="shape=module;jettyWidth=8;jettyHeight=4;" parent="62" vertex="1">
                    <mxGeometry x="1" width="20" height="20" relative="1" as="geometry">
                        <mxPoint x="-27" y="7" as="offset"/>
                    </mxGeometry>
                </mxCell>
                <mxCell id="64" value="&amp;lt;&amp;lt;artifact&amp;gt;&amp;gt;&lt;br&gt;Text recognition, Font recognition" style="html=1;outlineConnect=0;whiteSpace=wrap;shape=mxgraph.archimate3.application;appType=artifact;archiType=square;verticalAlign=top;" parent="1" vertex="1">
                    <mxGeometry x="65.5" y="910" width="134.5" height="50" as="geometry"/>
                </mxCell>
                <mxCell id="61" value="&amp;lt;&amp;lt;artifact&amp;gt;&amp;gt;&lt;br&gt;Contextual analysis (distinguish characters, symbols)" style="html=1;outlineConnect=0;whiteSpace=wrap;shape=mxgraph.archimate3.application;appType=artifact;archiType=square;verticalAlign=top;" parent="1" vertex="1">
                    <mxGeometry x="65.5" y="970" width="134.5" height="70" as="geometry"/>
                </mxCell>
                <mxCell id="65" value="«c&lt;span style=&quot;border-color: var(--border-color);&quot;&gt;omponent&lt;/span&gt;»&lt;br&gt;Training" style="html=1;dropTarget=0;verticalAlign=top;" parent="1" vertex="1">
                    <mxGeometry x="30" y="1060" width="200" height="110" as="geometry"/>
                </mxCell>
                <mxCell id="66" value="" style="shape=module;jettyWidth=8;jettyHeight=4;" parent="65" vertex="1">
                    <mxGeometry x="1" width="20" height="20" relative="1" as="geometry">
                        <mxPoint x="-27" y="7" as="offset"/>
                    </mxGeometry>
                </mxCell>
                <mxCell id="67" value="&amp;lt;&amp;lt;artifact&amp;gt;&amp;gt;&lt;br&gt;OCR training, update pipelines" style="html=1;outlineConnect=0;whiteSpace=wrap;shape=mxgraph.archimate3.application;appType=artifact;archiType=square;verticalAlign=top;" parent="1" vertex="1">
                    <mxGeometry x="65.5" y="1100" width="134.5" height="60" as="geometry"/>
                </mxCell>
                <mxCell id="68" value="&amp;lt;&amp;lt;node&amp;gt;&amp;gt;&lt;br&gt;&amp;lt;&amp;lt;Private Clooud&amp;gt;&amp;gt;&lt;br style=&quot;border-color: var(--border-color);&quot;&gt;&lt;b&gt;LaTeX Rendering&lt;/b&gt;" style="html=1;outlineConnect=0;whiteSpace=wrap;shape=mxgraph.archimate.application;appType=node;align=center;verticalAlign=top;" parent="1" vertex="1">
                    <mxGeometry x="305" y="620" width="240" height="260" as="geometry"/>
                </mxCell>
                <mxCell id="69" value="«c&lt;span style=&quot;border-color: var(--border-color);&quot;&gt;omponent&lt;/span&gt;»&lt;br&gt;LaTex Rendering Engine" style="html=1;dropTarget=0;verticalAlign=top;" parent="1" vertex="1">
                    <mxGeometry x="325" y="670" width="200" height="60" as="geometry"/>
                </mxCell>
                <mxCell id="70" value="" style="shape=module;jettyWidth=8;jettyHeight=4;" parent="69" vertex="1">
                    <mxGeometry x="1" width="20" height="20" relative="1" as="geometry">
                        <mxPoint x="-27" y="7" as="offset"/>
                    </mxGeometry>
                </mxCell>
                <mxCell id="71" value="«c&lt;span style=&quot;border-color: var(--border-color);&quot;&gt;omponent&lt;/span&gt;»&lt;br&gt;Rendering queue" style="html=1;dropTarget=0;verticalAlign=top;" parent="1" vertex="1">
                    <mxGeometry x="325" y="740" width="200" height="60" as="geometry"/>
                </mxCell>
                <mxCell id="72" value="" style="shape=module;jettyWidth=8;jettyHeight=4;" parent="71" vertex="1">
                    <mxGeometry x="1" width="20" height="20" relative="1" as="geometry">
                        <mxPoint x="-27" y="7" as="offset"/>
                    </mxGeometry>
                </mxCell>
                <mxCell id="73" value="«c&lt;span style=&quot;border-color: var(--border-color);&quot;&gt;omponent&lt;/span&gt;»&lt;br&gt;Cache system" style="html=1;dropTarget=0;verticalAlign=top;" parent="1" vertex="1">
                    <mxGeometry x="325" y="810" width="200" height="60" as="geometry"/>
                </mxCell>
                <mxCell id="74" value="" style="shape=module;jettyWidth=8;jettyHeight=4;" parent="73" vertex="1">
                    <mxGeometry x="1" width="20" height="20" relative="1" as="geometry">
                        <mxPoint x="-27" y="7" as="offset"/>
                    </mxGeometry>
                </mxCell>
                <mxCell id="182" style="edgeStyle=orthogonalEdgeStyle;html=1;endArrow=none;endFill=0;entryX=1;entryY=0.5;entryDx=0;entryDy=0;entryPerimeter=0;" parent="1" source="75" target="114" edge="1">
                    <mxGeometry relative="1" as="geometry">
                        <Array as="points">
                            <mxPoint x="529" y="60"/>
                            <mxPoint x="529" y="65"/>
                        </Array>
                        <mxPoint x="520" y="50" as="targetPoint"/>
                    </mxGeometry>
                </mxCell>
                <mxCell id="75" value="&amp;lt;&amp;lt;node&amp;gt;&amp;gt;&lt;br&gt;&amp;lt;&amp;lt;Physical Server&amp;gt;&amp;gt;&lt;br style=&quot;border-color: var(--border-color);&quot;&gt;&lt;b&gt;User Database&lt;/b&gt;" style="html=1;outlineConnect=0;whiteSpace=wrap;shape=mxgraph.archimate.application;appType=node;align=center;verticalAlign=top;" parent="1" vertex="1">
                    <mxGeometry x="590" y="12.5" width="240" height="120" as="geometry"/>
                </mxCell>
                <mxCell id="76" value="«c&lt;span style=&quot;border-color: var(--border-color);&quot;&gt;omponent&lt;/span&gt;»&lt;br&gt;Account information" style="html=1;dropTarget=0;verticalAlign=top;" parent="1" vertex="1">
                    <mxGeometry x="610" y="62.5" width="200" height="50" as="geometry"/>
                </mxCell>
                <mxCell id="77" value="" style="shape=module;jettyWidth=8;jettyHeight=4;" parent="76" vertex="1">
                    <mxGeometry x="1" width="20" height="20" relative="1" as="geometry">
                        <mxPoint x="-27" y="7" as="offset"/>
                    </mxGeometry>
                </mxCell>
                <mxCell id="203" style="edgeStyle=orthogonalEdgeStyle;html=1;exitX=0.5;exitY=0;exitDx=0;exitDy=0;exitPerimeter=0;entryX=0.5;entryY=1;entryDx=0;entryDy=0;entryPerimeter=0;endArrow=none;endFill=0;" edge="1" parent="1" source="82" target="68">
                    <mxGeometry relative="1" as="geometry"/>
                </mxCell>
                <mxCell id="204" style="edgeStyle=orthogonalEdgeStyle;html=1;exitX=1;exitY=0.25;exitDx=0;exitDy=0;exitPerimeter=0;entryX=1;entryY=0.5;entryDx=0;entryDy=0;entryPerimeter=0;endArrow=none;endFill=0;" edge="1" parent="1" source="82" target="47">
                    <mxGeometry relative="1" as="geometry"/>
                </mxCell>
                <mxCell id="82" value="&amp;lt;&amp;lt;node&amp;gt;&amp;gt;&lt;br&gt;&amp;lt;&amp;lt;Private Cloud&amp;gt;&amp;gt;&lt;br&gt;&lt;b&gt;Input Database&lt;/b&gt;" style="html=1;outlineConnect=0;whiteSpace=wrap;shape=mxgraph.archimate.application;appType=node;align=center;verticalAlign=top;" parent="1" vertex="1">
                    <mxGeometry x="305" y="900" width="240" height="300" as="geometry"/>
                </mxCell>
                <mxCell id="83" value="«c&lt;span style=&quot;border-color: var(--border-color);&quot;&gt;omponent&lt;/span&gt;»&lt;br&gt;Processed images, text &lt;br&gt;database" style="html=1;dropTarget=0;verticalAlign=top;" parent="1" vertex="1">
                    <mxGeometry x="325" y="960" width="200" height="60" as="geometry"/>
                </mxCell>
                <mxCell id="84" value="" style="shape=module;jettyWidth=8;jettyHeight=4;" parent="83" vertex="1">
                    <mxGeometry x="1" width="20" height="20" relative="1" as="geometry">
                        <mxPoint x="-27" y="7" as="offset"/>
                    </mxGeometry>
                </mxCell>
                <mxCell id="85" value="«c&lt;span style=&quot;border-color: var(--border-color);&quot;&gt;omponent&lt;/span&gt;»&lt;br&gt;Training data database" style="html=1;dropTarget=0;verticalAlign=top;" parent="1" vertex="1">
                    <mxGeometry x="325" y="1110" width="200" height="60" as="geometry"/>
                </mxCell>
                <mxCell id="86" value="" style="shape=module;jettyWidth=8;jettyHeight=4;" parent="85" vertex="1">
                    <mxGeometry x="1" width="20" height="20" relative="1" as="geometry">
                        <mxPoint x="-27" y="7" as="offset"/>
                    </mxGeometry>
                </mxCell>
                <mxCell id="87" value="«c&lt;span style=&quot;border-color: var(--border-color);&quot;&gt;omponent&lt;/span&gt;»&lt;br&gt;Symbols, fonts, LaTeX &lt;br&gt;database" style="html=1;dropTarget=0;verticalAlign=top;whiteSpace=wrap;" parent="1" vertex="1">
                    <mxGeometry x="325" y="1030" width="200" height="60" as="geometry"/>
                </mxCell>
                <mxCell id="88" value="" style="shape=module;jettyWidth=8;jettyHeight=4;" parent="87" vertex="1">
                    <mxGeometry x="1" width="20" height="20" relative="1" as="geometry">
                        <mxPoint x="-27" y="7" as="offset"/>
                    </mxGeometry>
                </mxCell>
                <mxCell id="108" style="edgeStyle=elbowEdgeStyle;html=1;endArrow=none;endFill=0;" parent="1" source="38" target="82" edge="1">
                    <mxGeometry relative="1" as="geometry">
                        <mxPoint x="250" y="700" as="sourcePoint"/>
                        <mxPoint x="430.5" y="860" as="targetPoint"/>
                        <Array as="points">
                            <mxPoint x="490" y="1140"/>
                            <mxPoint x="480" y="1120"/>
                            <mxPoint x="460" y="1150"/>
                            <mxPoint x="590" y="1130"/>
                            <mxPoint x="580" y="1130"/>
                            <mxPoint x="580" y="1160"/>
                            <mxPoint x="550" y="1140"/>
                            <mxPoint x="460" y="1180"/>
                            <mxPoint x="660" y="1370"/>
                            <mxPoint x="320" y="940"/>
                            <mxPoint x="270" y="890"/>
                            <mxPoint x="250" y="720"/>
                            <mxPoint x="426" y="730"/>
                            <mxPoint x="470" y="750"/>
                            <mxPoint x="368" y="770"/>
                            <mxPoint x="508" y="720"/>
                            <mxPoint x="438" y="700"/>
                        </Array>
                    </mxGeometry>
                </mxCell>
                <mxCell id="110" style="html=1;entryX=0;entryY=0.5;entryDx=0;entryDy=0;entryPerimeter=0;edgeStyle=elbowEdgeStyle;endArrow=none;endFill=0;exitX=1;exitY=0.5;exitDx=0;exitDy=0;exitPerimeter=0;" parent="1" source="47" target="75" edge="1">
                    <mxGeometry relative="1" as="geometry">
                        <mxPoint x="580" y="416.25" as="sourcePoint"/>
                        <mxPoint x="652" y="473.75" as="targetPoint"/>
                    </mxGeometry>
                </mxCell>
                <mxCell id="114" value="&amp;lt;&amp;lt;node&amp;gt;&amp;gt;&lt;br&gt;&amp;lt;&amp;lt;Private Cloud&amp;gt;&amp;gt;&lt;br&gt;&lt;b&gt;Authenticator Service&lt;/b&gt;" style="html=1;outlineConnect=0;whiteSpace=wrap;shape=mxgraph.archimate.application;appType=node;align=center;verticalAlign=top;" parent="1" vertex="1">
                    <mxGeometry x="311" y="10" width="209" height="110" as="geometry"/>
                </mxCell>
                <mxCell id="115" value="«c&lt;span style=&quot;border-color: var(--border-color);&quot;&gt;omponent&lt;/span&gt;»&lt;br&gt;Idnetitiy and Access &lt;br&gt;Management" style="html=1;dropTarget=0;verticalAlign=top;" parent="1" vertex="1">
                    <mxGeometry x="325.5" y="60" width="180" height="50" as="geometry"/>
                </mxCell>
                <mxCell id="116" value="" style="shape=module;jettyWidth=8;jettyHeight=4;" parent="115" vertex="1">
                    <mxGeometry x="1" width="20" height="20" relative="1" as="geometry">
                        <mxPoint x="-27" y="7" as="offset"/>
                    </mxGeometry>
                </mxCell>
                <mxCell id="121" style="html=1;entryX=0.5;entryY=1;entryDx=0;entryDy=0;entryPerimeter=0;edgeStyle=elbowEdgeStyle;endArrow=none;endFill=0;" parent="1" target="114" edge="1">
                    <mxGeometry relative="1" as="geometry">
                        <mxPoint x="425" y="140" as="sourcePoint"/>
                        <mxPoint x="520.5" y="525" as="targetPoint"/>
                        <Array as="points">
                            <mxPoint x="425" y="120"/>
                        </Array>
                    </mxGeometry>
                </mxCell>
                <mxCell id="200" style="edgeStyle=orthogonalEdgeStyle;html=1;exitX=0.5;exitY=0;exitDx=0;exitDy=0;exitPerimeter=0;entryX=0.5;entryY=1;entryDx=0;entryDy=0;entryPerimeter=0;endArrow=none;endFill=0;" edge="1" parent="1" source="133" target="136">
                    <mxGeometry relative="1" as="geometry"/>
                </mxCell>
                <mxCell id="133" value="&amp;lt;&amp;lt;node&amp;gt;&amp;gt;&lt;br&gt;&amp;lt;&amp;lt;Private Cloud&amp;gt;&amp;gt;&lt;br&gt;&lt;b&gt;Metrics &amp;amp; Logs Database&lt;/b&gt;" style="html=1;outlineConnect=0;whiteSpace=wrap;shape=mxgraph.archimate.application;appType=node;align=center;verticalAlign=top;" parent="1" vertex="1">
                    <mxGeometry x="590" y="650" width="240" height="185" as="geometry"/>
                </mxCell>
                <mxCell id="134" value="«c&lt;span style=&quot;border-color: var(--border-color);&quot;&gt;omponent&lt;/span&gt;»&lt;br&gt;System health, performance &lt;br&gt;data" style="html=1;dropTarget=0;verticalAlign=top;" parent="1" vertex="1">
                    <mxGeometry x="610" y="700" width="200" height="50" as="geometry"/>
                </mxCell>
                <mxCell id="135" value="" style="shape=module;jettyWidth=8;jettyHeight=4;" parent="134" vertex="1">
                    <mxGeometry x="1" width="20" height="20" relative="1" as="geometry">
                        <mxPoint x="-27" y="7" as="offset"/>
                    </mxGeometry>
                </mxCell>
                <mxCell id="145" style="edgeStyle=orthogonalEdgeStyle;html=1;exitX=0;exitY=0.5;exitDx=0;exitDy=0;exitPerimeter=0;entryX=1;entryY=0.5;entryDx=0;entryDy=0;entryPerimeter=0;endArrow=none;endFill=0;" parent="1" source="136" target="47" edge="1">
                    <mxGeometry relative="1" as="geometry">
                        <Array as="points">
                            <mxPoint x="590" y="401"/>
                            <mxPoint x="590" y="290"/>
                        </Array>
                    </mxGeometry>
                </mxCell>
                <mxCell id="136" value="&amp;lt;&amp;lt;node&amp;gt;&amp;gt;&lt;br&gt;&amp;lt;&amp;lt;Hybrod Cloud&amp;gt;&amp;gt;&lt;br&gt;&lt;b&gt;Monitoring &amp;amp; Analytics Server&lt;/b&gt;" style="html=1;outlineConnect=0;whiteSpace=wrap;shape=mxgraph.archimate.application;appType=node;align=center;verticalAlign=top;" parent="1" vertex="1">
                    <mxGeometry x="590" y="155" width="240" height="477.5" as="geometry"/>
                </mxCell>
                <mxCell id="137" value="«c&lt;span style=&quot;border-color: var(--border-color);&quot;&gt;omponent&lt;/span&gt;»&lt;br&gt;Data Collector" style="html=1;dropTarget=0;verticalAlign=top;" parent="1" vertex="1">
                    <mxGeometry x="610" y="205" width="200" height="60" as="geometry"/>
                </mxCell>
                <mxCell id="138" value="" style="shape=module;jettyWidth=8;jettyHeight=4;" parent="137" vertex="1">
                    <mxGeometry x="1" width="20" height="20" relative="1" as="geometry">
                        <mxPoint x="-27" y="7" as="offset"/>
                    </mxGeometry>
                </mxCell>
                <mxCell id="139" value="«c&lt;span style=&quot;border-color: var(--border-color);&quot;&gt;omponent&lt;/span&gt;»&lt;br&gt;Log Processor" style="html=1;dropTarget=0;verticalAlign=top;" parent="1" vertex="1">
                    <mxGeometry x="610" y="275" width="200" height="60" as="geometry"/>
                </mxCell>
                <mxCell id="140" value="" style="shape=module;jettyWidth=8;jettyHeight=4;" parent="139" vertex="1">
                    <mxGeometry x="1" width="20" height="20" relative="1" as="geometry">
                        <mxPoint x="-27" y="7" as="offset"/>
                    </mxGeometry>
                </mxCell>
                <mxCell id="141" value="«c&lt;span style=&quot;border-color: var(--border-color);&quot;&gt;omponent&lt;/span&gt;»&lt;br&gt;Metrics Aggregator" style="html=1;dropTarget=0;verticalAlign=top;whiteSpace=wrap;" parent="1" vertex="1">
                    <mxGeometry x="610" y="345" width="200" height="60" as="geometry"/>
                </mxCell>
                <mxCell id="142" value="" style="shape=module;jettyWidth=8;jettyHeight=4;" parent="141" vertex="1">
                    <mxGeometry x="1" width="20" height="20" relative="1" as="geometry">
                        <mxPoint x="-27" y="7" as="offset"/>
                    </mxGeometry>
                </mxCell>
                <mxCell id="150" value="«c&lt;span style=&quot;border-color: var(--border-color);&quot;&gt;omponent&lt;/span&gt;»&lt;br&gt;Alert Manager" style="html=1;dropTarget=0;verticalAlign=top;whiteSpace=wrap;" parent="1" vertex="1">
                    <mxGeometry x="610" y="420" width="200" height="60" as="geometry"/>
                </mxCell>
                <mxCell id="151" value="" style="shape=module;jettyWidth=8;jettyHeight=4;" parent="150" vertex="1">
                    <mxGeometry x="1" width="20" height="20" relative="1" as="geometry">
                        <mxPoint x="-27" y="7" as="offset"/>
                    </mxGeometry>
                </mxCell>
                <mxCell id="152" value="«c&lt;span style=&quot;border-color: var(--border-color);&quot;&gt;omponent&lt;/span&gt;»&lt;br&gt;Analysis Engine" style="html=1;dropTarget=0;verticalAlign=top;whiteSpace=wrap;" parent="1" vertex="1">
                    <mxGeometry x="610" y="490" width="200" height="60" as="geometry"/>
                </mxCell>
                <mxCell id="153" value="" style="shape=module;jettyWidth=8;jettyHeight=4;" parent="152" vertex="1">
                    <mxGeometry x="1" width="20" height="20" relative="1" as="geometry">
                        <mxPoint x="-27" y="7" as="offset"/>
                    </mxGeometry>
                </mxCell>
                <mxCell id="154" value="«c&lt;span style=&quot;border-color: var(--border-color);&quot;&gt;omponent&lt;/span&gt;»&lt;br&gt;Reporting Tool" style="html=1;dropTarget=0;verticalAlign=top;whiteSpace=wrap;" parent="1" vertex="1">
                    <mxGeometry x="610" y="560" width="200" height="60" as="geometry"/>
                </mxCell>
                <mxCell id="155" value="" style="shape=module;jettyWidth=8;jettyHeight=4;" parent="154" vertex="1">
                    <mxGeometry x="1" width="20" height="20" relative="1" as="geometry">
                        <mxPoint x="-27" y="7" as="offset"/>
                    </mxGeometry>
                </mxCell>
                <mxCell id="205" style="edgeStyle=orthogonalEdgeStyle;html=1;exitX=1;exitY=0.5;exitDx=0;exitDy=0;exitPerimeter=0;entryX=1;entryY=0.75;entryDx=0;entryDy=0;entryPerimeter=0;endArrow=none;endFill=0;" edge="1" parent="1" source="156" target="136">
                    <mxGeometry relative="1" as="geometry"/>
                </mxCell>
                <mxCell id="156" value="&amp;lt;&amp;lt;node&amp;gt;&amp;gt;&lt;br&gt;&amp;lt;&amp;lt;Private Cloud&amp;gt;&amp;gt;&lt;br style=&quot;border-color: var(--border-color);&quot;&gt;&lt;b&gt;Analytics Database&lt;/b&gt;" style="html=1;outlineConnect=0;whiteSpace=wrap;shape=mxgraph.archimate.application;appType=node;align=center;verticalAlign=top;" parent="1" vertex="1">
                    <mxGeometry x="590" y="852.5" width="240" height="180" as="geometry"/>
                </mxCell>
                <mxCell id="157" value="«c&lt;span style=&quot;border-color: var(--border-color);&quot;&gt;omponent&lt;/span&gt;»&lt;br&gt;User behaviour data" style="html=1;dropTarget=0;verticalAlign=top;" parent="1" vertex="1">
                    <mxGeometry x="610" y="902.5" width="200" height="50" as="geometry"/>
                </mxCell>
                <mxCell id="158" value="" style="shape=module;jettyWidth=8;jettyHeight=4;" parent="157" vertex="1">
                    <mxGeometry x="1" width="20" height="20" relative="1" as="geometry">
                        <mxPoint x="-27" y="7" as="offset"/>
                    </mxGeometry>
                </mxCell>
                <mxCell id="162" value="«c&lt;span style=&quot;border-color: var(--border-color);&quot;&gt;omponent&lt;/span&gt;»&lt;br&gt;OCR &amp;amp; Rendering logs" style="html=1;dropTarget=0;verticalAlign=top;" parent="1" vertex="1">
                    <mxGeometry x="610" y="765" width="200" height="50" as="geometry"/>
                </mxCell>
                <mxCell id="163" value="" style="shape=module;jettyWidth=8;jettyHeight=4;" parent="162" vertex="1">
                    <mxGeometry x="1" width="20" height="20" relative="1" as="geometry">
                        <mxPoint x="-27" y="7" as="offset"/>
                    </mxGeometry>
                </mxCell>
                <mxCell id="164" value="«c&lt;span style=&quot;border-color: var(--border-color);&quot;&gt;omponent&lt;/span&gt;»&lt;br&gt;System usage data" style="html=1;dropTarget=0;verticalAlign=top;" parent="1" vertex="1">
                    <mxGeometry x="610" y="962.5" width="200" height="50" as="geometry"/>
                </mxCell>
                <mxCell id="165" value="" style="shape=module;jettyWidth=8;jettyHeight=4;" parent="164" vertex="1">
                    <mxGeometry x="1" width="20" height="20" relative="1" as="geometry">
                        <mxPoint x="-27" y="7" as="offset"/>
                    </mxGeometry>
                </mxCell>
                <mxCell id="180" style="edgeStyle=orthogonalEdgeStyle;html=1;endArrow=none;endFill=0;" parent="1" target="47" edge="1">
                    <mxGeometry relative="1" as="geometry">
                        <mxPoint x="213" y="400" as="sourcePoint"/>
                        <Array as="points">
                            <mxPoint x="260" y="400"/>
                            <mxPoint x="260" y="400"/>
                        </Array>
                    </mxGeometry>
                </mxCell>
                <mxCell id="181" style="edgeStyle=orthogonalEdgeStyle;html=1;entryX=0.5;entryY=0;entryDx=0;entryDy=0;entryPerimeter=0;endArrow=none;endFill=0;" parent="1" source="168" target="38" edge="1">
                    <mxGeometry relative="1" as="geometry"/>
                </mxCell>
                <mxCell id="168" value="&amp;lt;&amp;lt;node&amp;gt;&amp;gt;&lt;br&gt;&amp;lt;&amp;lt;Public Cloud&amp;gt;&amp;gt;&lt;br&gt;&lt;b&gt;Input Handler&lt;/b&gt;" style="html=1;outlineConnect=0;whiteSpace=wrap;shape=mxgraph.archimate.application;appType=node;align=center;verticalAlign=top;" parent="1" vertex="1">
                    <mxGeometry x="10" y="280" width="240" height="340" as="geometry"/>
                </mxCell>
                <mxCell id="169" value="«c&lt;span style=&quot;border-color: var(--border-color);&quot;&gt;omponent&lt;/span&gt;»&lt;br&gt;Keyboard input handler" style="html=1;dropTarget=0;verticalAlign=top;" parent="1" vertex="1">
                    <mxGeometry x="30" y="330" width="200" height="60" as="geometry"/>
                </mxCell>
                <mxCell id="170" value="" style="shape=module;jettyWidth=8;jettyHeight=4;" parent="169" vertex="1">
                    <mxGeometry x="1" width="20" height="20" relative="1" as="geometry">
                        <mxPoint x="-27" y="7" as="offset"/>
                    </mxGeometry>
                </mxCell>
                <mxCell id="171" value="«c&lt;span style=&quot;border-color: var(--border-color);&quot;&gt;omponent&lt;/span&gt;»&lt;br&gt;Hand writing handler" style="html=1;dropTarget=0;verticalAlign=top;" parent="1" vertex="1">
                    <mxGeometry x="30" y="480" width="200" height="60" as="geometry"/>
                </mxCell>
                <mxCell id="172" value="" style="shape=module;jettyWidth=8;jettyHeight=4;" parent="171" vertex="1">
                    <mxGeometry x="1" width="20" height="20" relative="1" as="geometry">
                        <mxPoint x="-27" y="7" as="offset"/>
                    </mxGeometry>
                </mxCell>
                <mxCell id="173" value="«c&lt;span style=&quot;border-color: var(--border-color);&quot;&gt;omponent&lt;/span&gt;»&lt;br&gt;Image input handler" style="html=1;dropTarget=0;verticalAlign=top;whiteSpace=wrap;" parent="1" vertex="1">
                    <mxGeometry x="30" y="400" width="200" height="60" as="geometry"/>
                </mxCell>
                <mxCell id="174" value="" style="shape=module;jettyWidth=8;jettyHeight=4;" parent="173" vertex="1">
                    <mxGeometry x="1" width="20" height="20" relative="1" as="geometry">
                        <mxPoint x="-27" y="7" as="offset"/>
                    </mxGeometry>
                </mxCell>
                <mxCell id="175" value="«c&lt;span style=&quot;border-color: var(--border-color);&quot;&gt;omponent&lt;/span&gt;»&lt;br&gt;PDF handler" style="html=1;dropTarget=0;verticalAlign=top;" parent="1" vertex="1">
                    <mxGeometry x="30" y="550" width="200" height="60" as="geometry"/>
                </mxCell>
                <mxCell id="176" value="" style="shape=module;jettyWidth=8;jettyHeight=4;" parent="175" vertex="1">
                    <mxGeometry x="1" width="20" height="20" relative="1" as="geometry">
                        <mxPoint x="-27" y="7" as="offset"/>
                    </mxGeometry>
                </mxCell>
                <mxCell id="188" value="&amp;lt;&amp;lt;node&amp;gt;&amp;gt;&lt;br&gt;&amp;lt;&amp;lt;Public Cloud&amp;gt;&amp;gt;&lt;br style=&quot;border-color: var(--border-color);&quot;&gt;&lt;b&gt;Load Balancer&lt;/b&gt;" style="html=1;outlineConnect=0;whiteSpace=wrap;shape=mxgraph.archimate.application;appType=node;align=center;verticalAlign=top;" vertex="1" parent="1">
                    <mxGeometry x="295" y="457.5" width="240" height="130" as="geometry"/>
                </mxCell>
                <mxCell id="189" value="«c&lt;span style=&quot;border-color: var(--border-color);&quot;&gt;omponent&lt;/span&gt;»&lt;br&gt;Distribution Engine" style="html=1;dropTarget=0;verticalAlign=top;" vertex="1" parent="1">
                    <mxGeometry x="315.5" y="517.5" width="200" height="60" as="geometry"/>
                </mxCell>
                <mxCell id="190" value="" style="shape=module;jettyWidth=8;jettyHeight=4;" vertex="1" parent="189">
                    <mxGeometry x="1" width="20" height="20" relative="1" as="geometry">
                        <mxPoint x="-27" y="7" as="offset"/>
                    </mxGeometry>
                </mxCell>
                <mxCell id="197" style="edgeStyle=orthogonalEdgeStyle;html=1;endArrow=none;endFill=0;exitX=0.5;exitY=1;exitDx=0;exitDy=0;exitPerimeter=0;" edge="1" parent="1" source="188" target="68">
                    <mxGeometry relative="1" as="geometry">
                        <mxPoint x="435.42857142857133" y="749.9999999999998" as="sourcePoint"/>
                        <mxPoint x="445" y="799.9999999999998" as="targetPoint"/>
                        <Array as="points">
                            <mxPoint x="425" y="790"/>
                            <mxPoint x="425" y="790"/>
                        </Array>
                    </mxGeometry>
                </mxCell>
                <mxCell id="198" style="edgeStyle=orthogonalEdgeStyle;html=1;endArrow=none;endFill=0;exitX=0;exitY=0.5;exitDx=0;exitDy=0;exitPerimeter=0;entryX=1;entryY=0.25;entryDx=0;entryDy=0;entryPerimeter=0;" edge="1" parent="1" source="188" target="38">
                    <mxGeometry relative="1" as="geometry">
                        <mxPoint x="311" y="774.9999999999998" as="sourcePoint"/>
                        <mxPoint x="366" y="1085" as="targetPoint"/>
                        <Array as="points">
                            <mxPoint x="270" y="522"/>
                            <mxPoint x="270" y="800"/>
                        </Array>
                    </mxGeometry>
                </mxCell>
            </root>
        </mxGraphModel>
    </diagram>
</mxfile>